Simulation
nRows=31
nColumns=15
endheader
time  TH_x TH_y TH_z SC_y  SC_z  SC_x  AC_y  AC_z  AC_x  GH_y  GH_z  GH_yy  EL_x  PS_y
1.5899999999999999  0.000000  0.000000  0.000000  -40.1871481277691  8.862016602552252  29.333522822454608  53.15658287431492  6.441797363442451  0.9472764265903395  -42.42500567628964  43.62049289046426  20.814219268493446  22.586630670443107  120.000000
1.6217999999999997  0.000000  0.000000  0.000000  -40.25742884296509  8.963213725042591  29.384906297568367  53.13185242306615  7.153561884513254  1.4410520465807621  -42.726214638045484  44.083038450418094  20.915371131842793  22.648847721235153  120.000000
1.6535999999999997  0.000000  0.000000  0.000000  -40.26406717043667  9.07130116693839  29.390259718517807  53.049761225455356  7.8029206258214145  1.9017013822844047  -43.01260437232862  44.42168206731603  21.126874325343156  22.677555708993513  120.000000
1.6853999999999998  0.000000  0.000000  0.000000  -40.23166113825642  9.16568478795735  29.371544333589377  52.94259726984486  8.38973329749225  2.3191224305195313  -43.30496977244682  44.63165482083462  21.403223201597072  22.690629567859148  120.000000
1.7171999999999996  0.000000  0.000000  0.000000  -40.17795966469065  9.227628583822533  29.32198895451573  52.83668833924622  8.917852737909996  2.685933313521621  -43.60582694188338  44.72258062532849  21.710460737935627  22.70036168802113  120.000000
1.7489999999999997  0.000000  0.000000  0.000000  -40.11843065832096  9.241864261527406  29.222381470508324  52.752491334687335  9.394196389459983  2.995550072453403  -43.90370265241295  44.705615673164516  22.030984441786046  22.71039882524184  120.000000
1.7807999999999997  0.000000  0.000000  0.000000  -40.069785507972746  9.196931762949522  29.06039891777041  52.705432374268064  9.826269216703713  3.2403894431011833  -44.17963482790473  44.58449713928293  22.36091949721376  22.715385836498267  120.000000
1.8125999999999998  0.000000  0.000000  0.000000  -40.04636917900496  9.087382245211085  28.827531048822884  52.70371145370614  10.220024487069312  3.414290582578635  -44.40833450872194  44.35902879815955  22.70199290377274  22.705707912200417  120.000000
1.8443999999999998  0.000000  0.000000  0.000000  -40.055477785092855  8.9159743866527  28.514191309959426  52.7455100116518  10.578894410255002  3.51565346129772  -44.56176940360103  44.026908486802235  23.053537174829664  22.671811139301948  120.000000
1.8761999999999996  0.000000  0.000000  0.000000  -40.09407139134929  8.694580158437944  28.10745585643794  52.81784754635287  10.903291493115482  3.549374464865978  -44.61359793686258  43.58429542329303  23.40584971258554  22.606611304980543  120.000000
1.9079999999999997  0.000000  0.000000  0.000000  -40.14799931070478  8.443567454947457  27.58929042637484  52.89709801963111  11.191212559171515  3.5280486806295275  -44.54219896821988  43.02730572594821  23.738524694041843  22.506930435813196  120.000000
1.9397999999999997  0.000000  0.000000  0.000000  -40.19406345046589  8.188970099344234  26.936454327806395  52.95188258648949  11.440033308454364  3.4718433275173703  -44.332349818268604  42.353837879830095  24.02364380430599  22.373262493076584  120.000000
1.9715999999999996  0.000000  0.000000  0.000000  -40.20484861172108  7.957224361321724  26.122456999930236  52.948837275756524  11.649298204814718  3.407026058844486  -43.97583508060791  41.56517317079968  24.23250771510949  22.20876926981765  120.000000
2.0033999999999996  0.000000  0.000000  0.000000  -40.15430940201016  7.77009991400995  25.121053659398665  52.85850839269532  11.822771902353239  3.363926099571609  -43.471531872435456  40.66641558393084  24.342591118802083  22.018406671178838  120.000000
2.0351999999999997  0.000000  0.000000  0.000000  -40.02206741495003  7.640802750461012  23.910148264523993  52.66009360621646  11.969968461849003  3.374050504452587  -42.825454413104445  39.665583188039285  24.343535716348082  21.807713082230567  120.000000
2.0669999999999997  0.000000  0.000000  0.000000  -39.79611725386268  7.571773423900912  22.47518763278131  52.3449519871066  12.106360538235721  3.467231946726367  -42.050707516822456  38.5724047143223  24.240061417098236  21.58143350344091  120.000000
2.0987999999999998  0.000000  0.000000  0.000000  -39.473464476463604  7.555373229388003  20.812847767105676  51.91778372054144  12.250295609226319  3.668121653391739  -41.16758338409434  37.396640934160956  24.05172601820932  21.34229445038125  120.000000
2.1306  0.000000  0.000000  0.000000  -39.059270422781395  7.575700787068752  18.93553478322066  51.39556047071173  12.416852261099876  3.9910917495800615  -40.2023926036611  36.14702098092037  23.81051334445902  21.090119092439977  120.000000
2.1624  0.000000  0.000000  0.000000  -38.56563479676314  7.611832477932423  16.87388041198913  50.80428306387722  12.612443862400095  4.436501913980163  -39.185645705734345  34.83016437273049  23.55757305074689  20.82145074742183  120.000000
2.1941999999999995  0.000000  0.000000  0.000000  -38.009132716171095  7.641763991582786  14.67619906930591  50.17355224469827  12.83201093451117  4.98901817911594  -38.14919763925224  33.45046331231583  23.340397777066354  20.529611334942565  120.000000
2.2259999999999995  0.000000  0.000000  0.000000  -37.408763955923476  7.645554274881486  12.40577314754973  49.53217266195161  13.060052260000443  5.61837805539166  -37.12301343210043  32.01075646924353  23.21026856704244  20.205791252795372  120.000000
2.2577999999999996  0.000000  0.000000  0.000000  -36.78447736338233  7.608773895991102  10.135364831782788  48.90451194882629  13.273850023035939  6.284066762735587  -36.132043896201836  30.513424608168513  23.21939260610037  19.841235612145294  120.000000
2.2895999999999996  0.000000  0.000000  0.000000  -36.15404301079507  7.523572183014818  7.937848862129674  48.30763278786298  13.448955359425437  6.9406930587616396  -35.19464525685999  28.962591854291862  23.418242355725805  19.429525351872527  120.000000
2.3213999999999997  0.000000  0.000000  0.000000  -35.53165256664519  7.387464592288122  5.875921413405001  47.75068518411121  13.56461539953326  7.544679365351838  -34.32218753538827  27.36662707695186  23.85332709978301  18.968381897163503  120.000000
2.3531999999999997  0.000000  0.000000  0.000000  -34.92853536720255  7.202782363812374  3.9938659997036994  47.236086857026535  13.606716351218536  8.061900975670932  -33.51934649951099  25.739701938922874  24.565210307828895  18.46160976820753  120.000000
2.385  0.000000  0.000000  0.000000  -34.352714011724444  6.975339616787586  2.3144987067950553  46.76095238442426  13.568417457708001  8.471465788216664  -32.78423919481107  24.102518107207935  25.586748615054226  17.920522643812827  120.000000
2.4167999999999994  0.000000  0.000000  0.000000  -33.808573392123826  6.713516776662103  0.8420232056700065  46.31916087324837  13.44885476282828  8.76555483116658  -32.10891133557783  22.480678112559026  26.939682137558712  17.363570265376932  120.000000
2.4485999999999994  0.000000  0.000000  0.000000  -33.29669585343385  6.42775667401535  -0.43285390620862396  45.903164249785185  13.252638866803425  8.947599996074342  -31.480348750916953  20.900303306800726  28.62937275658387  16.814084466014855  120.000000
2.4803999999999995  0.000000  0.000000  0.000000  -32.81420445878338  6.1290674859332475  -1.528570875742172  45.50602825318201  12.991809263701533  9.029989053955896  -30.882845789214482  19.382216995209397  30.638694250684186  16.29663535778977  120.000000
2.5121999999999995  0.000000  0.000000  0.000000  -32.35590358518935  5.8286170064340945  -2.464960309869563  45.12355251949644  12.684728071515591  9.029782894792072  -30.302183682695347  17.935024365102542  32.92239387819678  15.833047827908159  120.000000
2.5439999999999996  0.000000  0.000000  0.000000  -31.915482462052367  5.537692083656099  -3.254980822290682  44.75514698591456  12.352820041199248  8.96266213844665  -29.730318979634674  16.549779168996835  35.4054403950654  15.439420309326213  120.000000
